<?xml version="1.0" encoding="us-ascii" standalone="no"?><svg xmlns="http://www.w3.org/2000/svg" xmlns:xlink="http://www.w3.org/1999/xlink" contentStyleType="text/css" height="120px" preserveAspectRatio="none" style="width:268px;height:120px;background:#FFFFFF;" version="1.1" viewBox="0 0 268 120" width="268px" zoomAndPan="magnify"><defs/><g><ellipse cx="46.5" cy="98" fill="#222222" rx="10" ry="10" style="stroke:none;stroke-width:1.0;"/><rect fill="#F1F1F1" height="33.9688" rx="12.5" ry="12.5" style="stroke:#181818;stroke-width:0.5;" width="97" x="7" y="7"/><text fill="#000000" font-family="sans-serif" font-size="12" lengthAdjust="spacing" textLength="77" x="17" y="28.1387">Talk anh&#246;ren</text><rect fill="#F1F1F1" height="33.9688" rx="12.5" ry="12.5" style="stroke:#181818;stroke-width:0.5;" width="112" x="128.5" y="7"/><text fill="#000000" font-family="sans-serif" font-size="12" lengthAdjust="spacing" textLength="92" x="138.5" y="28.1387">begeistert sein</text><rect fill="#F1F1F1" height="33.9688" rx="12.5" ry="12.5" style="stroke:#181818;stroke-width:0.5;" width="145" x="117" y="81"/><text fill="#000000" font-family="sans-serif" font-size="12" lengthAdjust="spacing" textLength="125" x="127" y="102.1387">Racket ausprobieren</text><ellipse cx="86.5" cy="98" fill="none" rx="10" ry="10" style="stroke:#222222;stroke-width:1.0;"/><ellipse cx="87" cy="98.5" fill="#222222" rx="6" ry="6" style="stroke:none;stroke-width:1.0;"/><!--reverse link Talk anh?ren to start--><g id="link_Talk anh&#246;ren_start"><path d="M52.7949,46.6407 C51.0668,60.4656 48.9163,77.6695 47.6288,87.97 " fill="none" id="Talk anh&#246;ren-backto-start" style="stroke:#181818;stroke-width:1.0;"/><polygon fill="#181818" points="53.4578,41.3379,48.3722,49.7722,52.8375,46.2993,56.3104,50.7646,53.4578,41.3379" style="stroke:#181818;stroke-width:1.0;"/></g><!--link Talk anh?ren to begeistert sein--><g id="link_Talk anh&#246;ren_begeistert sein"><path d="M104.127,24 C110.422,24 116.718,24 123.013,24 " fill="none" id="Talk anh&#246;ren-to-begeistert sein" style="stroke:#181818;stroke-width:1.0;"/><polygon fill="#181818" points="128.302,24,119.302,20,123.302,24,119.302,28,128.302,24" style="stroke:#181818;stroke-width:1.0;"/></g><!--link begeistert sein to Racket ausprobieren--><g id="link_begeistert sein_Racket ausprobieren"><path d="M185.635,41.3379 C186.338,51.4641 187.249,64.5843 188.01,75.5432 " fill="none" id="begeistert sein-to-Racket ausprobieren" style="stroke:#181818;stroke-width:1.0;"/><polygon fill="#181818" points="188.37,80.7267,191.7367,71.4711,188.0235,75.7387,183.7559,72.0255,188.37,80.7267" style="stroke:#181818;stroke-width:1.0;"/></g><!--reverse link end to Racket ausprobieren--><g id="link_end_Racket ausprobieren"><path d="M101.6413,98 C106.7241,98 111.807,98 116.89,98 " fill="none" id="end-backto-Racket ausprobieren" style="stroke:#181818;stroke-width:1.0;"/><polygon fill="#181818" points="96.5586,98,105.5586,102,101.5586,98,105.5586,94,96.5586,98" style="stroke:#181818;stroke-width:1.0;"/></g><!--SRC=[qz3ILD0jBT2rKr0AISp9LaZCopYyhIWrJubBjoWpFQC4996KcfwQMLoIMbIYK9oQ2P82YGOb9cUdbYWabXON5EKdPQP2DEMafe7qQ6Xf0W00]--></g></svg>